<?xml version="1.0" encoding="UTF-8"?>
<svg version="1.1" xmlns="http://www.w3.org/2000/svg" width="253" height="400">
<path d="M0 0 C83.49 0 166.98 0 253 0 C253 132 253 264 253 400 C169.51 400 86.02 400 0 400 C0 268 0 136 0 0 Z " fill="#FBFBFB" transform="translate(0,0)"/>
<path d="M0 0 C2.15530396 0.9886322 2.15530396 0.9886322 3.15530396 2.9886322 C3.2676875 5.14178213 3.31466669 7.29844381 3.33230591 9.45445251 C3.33887711 10.11810318 3.3454483 10.78175385 3.35221863 11.46551514 C3.37195827 13.66593029 3.38361695 15.8662771 3.39358521 18.0667572 C3.39766073 18.81868095 3.40173626 19.57060471 3.40593529 20.34531403 C3.42680106 24.32684047 3.44109931 28.30833242 3.45046997 32.28990173 C3.46152243 36.39685288 3.49590677 40.50326042 3.53564167 44.61001968 C3.56182785 47.77225226 3.57016365 50.93435586 3.57375145 54.09668732 C3.578614 55.6101167 3.59021868 57.12354045 3.60878944 58.63686371 C3.63322036 60.76008712 3.6322095 62.88191191 3.62527466 65.00523376 C3.6311409 66.21165527 3.63700714 67.41807678 3.64305115 68.66105652 C2.59058364 75.84134448 -3.05587867 80.49703864 -7.98068237 85.41514587 C-8.69178665 86.13296738 -9.40289093 86.85078888 -10.13554382 87.59036255 C-12.47733411 89.951082 -14.82653143 92.3042514 -17.17672729 94.65660095 C-18.81348662 96.29979013 -20.45009634 97.94312835 -22.08656311 99.58660889 C-25.51353313 103.02553782 -28.94459588 106.46032374 -32.37814331 109.89268494 C-36.77312758 114.28746574 -41.15417995 118.69585615 -45.53181934 123.10790539 C-48.90591449 126.5042517 -52.289075 129.89145475 -55.67484093 133.2761631 C-57.29394792 134.89762734 -58.9098194 136.52232919 -60.5223484 138.15033531 C-62.7790062 140.42662175 -65.0480261 142.68984628 -67.32052612 144.95030212 C-67.98102966 145.62204468 -68.6415332 146.29378723 -69.322052 146.98588562 C-75.22080619 152.80565282 -80.14357142 155.36560766 -88.66622925 155.36094666 C-90.63780754 155.37028984 -90.63780754 155.37028984 -92.6492157 155.37982178 C-94.06464016 155.37113721 -95.48006086 155.36181962 -96.89547729 155.35191345 C-98.36041768 155.35139423 -99.82535876 155.35191432 -101.29029846 155.35342407 C-104.34735632 155.35333472 -107.40414842 155.34297456 -110.46115112 155.32481384 C-114.3832542 155.30202696 -118.304973 155.30160449 -122.22712421 155.30833149 C-125.24595064 155.31166705 -128.26468902 155.30505092 -131.28349876 155.29520226 C-132.73041512 155.29135034 -134.17734125 155.29020201 -135.62426186 155.2917881 C-137.63957542 155.2921578 -139.65487618 155.27808258 -141.6701355 155.26329041 C-142.81706375 155.25868301 -143.963992 155.25407562 -145.14567566 155.24932861 C-147.84469604 154.9886322 -147.84469604 154.9886322 -149.84469604 152.9886322 C-150.38731384 150.81573486 -150.38731384 150.81573486 -149.84469604 147.9886322 C-147.89603345 145.30262768 -145.53851299 143.06249492 -143.16281128 140.75498962 C-142.45229111 140.04534561 -141.74177094 139.3357016 -141.00971985 138.60455322 C-138.65240824 136.25583776 -136.27798239 133.92523087 -133.90328979 131.59410095 C-132.25980047 129.96248192 -130.61748734 128.32967735 -128.9763031 126.69573975 C-124.64465929 122.38888293 -120.29867929 118.09679019 -115.9491272 113.80802917 C-109.84150205 107.78063694 -103.75323749 101.73368189 -97.66307068 95.68865967 C-94.42058793 92.47028229 -91.17268276 89.25753729 -87.92024231 86.04922485 C-86.4242485 84.56966355 -84.92828057 83.09007607 -83.43234253 81.61045837 C-82.43216095 80.62745255 -82.43216095 80.62745255 -81.41177368 79.62458801 C-77.615568 75.86351307 -74.04549004 71.97826548 -70.55444813 67.93331051 C-67.83957581 64.84540475 -64.96290523 61.92697165 -62.07077026 59.00596619 C-61.11568069 58.03620094 -61.11568069 58.03620094 -60.14129639 57.04684448 C-58.06374705 54.93972684 -55.98224957 52.83658774 -53.89938354 50.73472595 C-53.18389469 50.01266527 -52.46840584 49.29060459 -51.7312355 48.54666328 C-47.95528522 44.73831684 -44.17540269 40.9339157 -40.39303589 37.13194275 C-37.26566374 33.98664987 -34.14706157 30.83302745 -31.03561401 27.67198181 C-27.26710105 23.84349509 -23.48427104 20.02973837 -19.69052505 16.22625923 C-18.24926382 14.77642034 -16.81315675 13.32143907 -15.3823204 11.86131096 C-13.38855691 9.82889014 -11.3769486 7.81595546 -9.35983276 5.80674744 C-8.77165771 5.19857178 -8.18348267 4.59039612 -7.57748413 3.96379089 C-3.52850434 -0.01410039 -3.52850434 -0.01410039 0 0 Z " fill="#001328" transform="translate(211.84469604492188,70.01136779785156)"/>
<path d="M0 0 C1.35013939 -0.00855011 1.35013939 -0.00855011 2.72755432 -0.01727295 C4.63321759 -0.02672701 6.53889725 -0.03325854 8.44458008 -0.03710938 C11.36373275 -0.0468245 14.28218426 -0.07784767 17.20117188 -0.109375 C19.05077706 -0.11590402 20.90038729 -0.12115489 22.75 -0.125 C23.62506699 -0.1373468 24.50013397 -0.1496936 25.40171814 -0.16241455 C26.21588699 -0.15941345 27.03005585 -0.15641235 27.86889648 -0.15332031 C28.94239601 -0.15878876 28.94239601 -0.15878876 30.0375824 -0.16436768 C32.56398486 0.32330055 33.49399151 1.08917919 34.94140625 3.203125 C34.52307866 6.62713752 33.21805598 8.30138826 30.81768799 10.70106506 C30.1504068 11.37536057 29.48312561 12.04965607 28.79562378 12.74438477 C27.69071091 13.83783203 27.69071091 13.83783203 26.56347656 14.95336914 C25.79107635 15.72942001 25.01867615 16.50547089 24.22286987 17.30503845 C21.66244368 19.87358362 19.09129657 22.43109323 16.51953125 24.98828125 C14.73880782 26.76848616 12.9586022 28.54920917 11.17889404 30.33042908 C7.44428077 34.06495256 3.70470127 37.79442824 -0.0390625 41.51977539 C-4.36188061 45.82144923 -8.67582904 50.13185956 -12.98496318 54.44723803 C-17.13479842 58.60277788 -21.29035017 62.75255371 -25.44858551 66.89968681 C-27.21535671 68.66260858 -28.98078111 70.42688113 -30.7448349 72.19252205 C-33.21268886 74.66074699 -35.68694308 77.12236969 -38.16308594 79.58227539 C-38.8915976 80.31326447 -39.62010925 81.04425354 -40.37069702 81.7973938 C-48.43171458 89.77424677 -48.43171458 89.77424677 -54.12109375 90.703125 C-57.05859375 90.203125 -57.05859375 90.203125 -59.20898438 88.15405273 C-61.47784256 84.53424163 -61.63782162 81.63063905 -61.58984375 77.48828125 C-61.59367065 76.7549205 -61.59749756 76.02155975 -61.60144043 75.26597595 C-61.60415308 73.72035341 -61.59683712 72.17468445 -61.58007812 70.62915039 C-61.55868627 68.27580279 -61.5798819 65.925518 -61.60546875 63.57226562 C-61.60282475 62.06509749 -61.59769828 60.55793124 -61.58984375 59.05078125 C-61.59794067 58.35372574 -61.6060376 57.65667023 -61.61437988 56.93849182 C-61.44257481 47.88929094 -54.89652809 42.74346034 -48.890625 36.76953125 C-48.09637619 35.97336899 -47.30212738 35.17720673 -46.48381042 34.35691833 C-44.80603675 32.67778732 -43.12574935 31.0011647 -41.44311523 29.3269043 C-38.89011524 26.78456705 -36.34790063 24.23180041 -33.80664062 21.67773438 C-32.1686092 20.04102545 -30.529957 18.40493752 -28.890625 16.76953125 C-27.76512993 15.63796349 -27.76512993 15.63796349 -26.61689758 14.48353577 C-12.06567209 0.05846328 -12.06567209 0.05846328 0 0 Z " fill="#001327" transform="translate(170.05859375,225.796875)"/>
<path d="M0 0 C0 4.07211906 -1.5535064 5.1414603 -4.25 8.125 C-5.43335938 9.45917969 -5.43335938 9.45917969 -6.640625 10.8203125 C-8.90987032 12.9167345 -9.99179674 13.65502256 -13 14 C-8.88380164 9.08064098 -4.59589638 4.47352044 0 0 Z " fill="#151E2A" transform="translate(160,119)"/>
</svg>
