<?xml version="1.0" encoding="utf-8" ?>
<svg baseProfile="tiny" height="100%" version="1.2" width="100%" xmlns="http://www.w3.org/2000/svg" xmlns:ev="http://www.w3.org/2001/xml-events" xmlns:xlink="http://www.w3.org/1999/xlink"><defs /><polygon fill="white" points="130.0,224.9969 129.0,224.9969 128.0,224.9969 127.0,224.9969 126.0,224.9969 125.0,224.9969 124.0,224.9969 123.0,224.9969 122.0,224.9969 121.0,224.9969 120.0,224.9969 119.0,224.9969 118.0,224.9969 117.0,224.9969 116.0,224.9969 115.0,224.9969 114.0,224.9969 113.0,224.9969 112.0,224.9969 111.0,224.9969 110.0,224.9969 109.0,224.9969 108.0,224.9969 107.0,224.9969 106.0,224.9969 105.0,224.9969 104.0,224.9969 103.0,224.9969 102.0,224.9969 101.0,224.9969 100.0,224.9969 99.0,224.9969 98.0,224.9969 97.0,224.9969 96.0,224.9969 95.0,224.9969 94.0,224.9969 93.0,224.9969 92.0,224.9969 91.0,224.9969 90.0,224.9969 89.0,224.9969 88.0,224.9969 87.0,224.9969 86.0,224.9969 85.0,224.9969 84.0,224.9969 83.0,224.9969 82.0,224.9969 81.0,224.9969 80.0,224.9969 79.0,224.9969 78.0,224.9969 77.0,224.9969 76.0,224.9969 75.0,224.9969 74.0,224.9969 73.0,224.9969 72.0,224.9969 71.0,224.9969 70.0,224.9969 69.0,224.9969 68.0,224.9969 67.0,224.9969 66.0,224.9969 65.0,224.9969 64.0,224.9969 63.0031,224.0 63.0,223.9969 62.0,223.9969 61.0031,223.0 61.0031,222.0 61.0031,221.0 61.0031,220.0 61.0031,219.0 61.0031,218.0 62.0,217.0031 62.0031,217.0 63.0,216.0031 63.0031,216.0 64.0,215.0031 64.0031,215.0 65.0,214.0031 65.0031,214.0 66.0,213.0031 66.0031,213.0 67.0,212.0031 67.0031,212.0 68.0,211.0031 68.0031,211.0 69.0,210.0031 69.0031,210.0 70.0,209.0031 70.0031,209.0 71.0,208.0031 71.0031,208.0 72.0,207.0031 72.0031,207.0 73.0,206.0031 73.0031,206.0 74.0,205.0031 74.0031,205.0 75.0,204.0031 75.0031,204.0 76.0,203.0031 76.0031,203.0 77.0,202.0031 77.0031,202.0 78.0,201.0031 78.0031,201.0 79.0,200.0031 79.0031,200.0 80.0,199.0031 80.0031,199.0 81.0,198.0031 81.0031,198.0 82.0,197.0031 82.0031,197.0 83.0,196.0031 83.0031,196.0 84.0,195.0031 84.0031,195.0 85.0,194.0031 85.0031,194.0 86.0,193.0031 86.0031,193.0 87.0,192.0031 87.0031,192.0 88.0,191.0031 88.0031,191.0 89.0,190.0031 89.0031,190.0 90.0,189.0031 90.0031,189.0 91.0,188.0031 91.0031,188.0 92.0,187.0031 92.0031,187.0 93.0,186.0031 93.0031,186.0 94.0,185.0031 94.0031,185.0 95.0,184.0031 95.0031,184.0 96.0,183.0031 96.0031,183.0 97.0,182.0031 97.0031,182.0 98.0,181.0031 98.0031,181.0 99.0,180.0031 99.0031,180.0 100.0,179.0031 100.0031,179.0 101.0,178.0031 101.0031,178.0 102.0,177.0031 102.0031,177.0 103.0,176.0031 103.0031,176.0 104.0,175.0031 104.0031,175.0 105.0,174.0031 105.0031,174.0 106.0,173.0031 106.0031,173.0 107.0,172.0031 107.0031,172.0 108.0,171.0031 108.0031,171.0 109.0,170.0031 109.0031,170.0 110.0,169.0031 110.0031,169.0 111.0,168.0031 111.0031,168.0 112.0,167.0031 112.0031,167.0 113.0,166.0031 113.0031,166.0 114.0,165.0031 114.0031,165.0 115.0,164.0031 115.0031,164.0 116.0,163.0031 116.0031,163.0 117.0,162.0031 117.0031,162.0 118.0,161.0031 118.0031,161.0 118.0031,160.0 119.0,159.0031 119.0031,159.0 120.0,158.0031 120.0031,158.0 121.0,157.0031 121.0031,157.0 122.0,156.0031 122.0031,156.0 123.0,155.0031 123.0031,155.0 124.0,154.0031 124.0031,154.0 125.0,153.0031 125.0031,153.0 126.0,152.0031 126.0031,152.0 127.0,151.0031 127.0031,151.0 128.0,150.0031 128.0031,150.0 129.0,149.0031 129.0031,149.0 130.0,148.0031 130.0031,148.0 131.0,147.0031 131.0031,147.0 132.0,146.0031 132.0031,146.0 133.0,145.0031 133.0031,145.0 134.0,144.0031 134.0031,144.0 135.0,143.0031 135.0031,143.0 136.0,142.0031 136.0031,142.0 137.0,141.0031 137.0031,141.0 138.0,140.0031 138.0031,140.0 139.0,139.0031 139.0031,139.0 140.0,138.0031 140.0031,138.0 141.0,137.0031 141.0031,137.0 142.0,136.0031 142.0031,136.0 143.0,135.0031 143.0031,135.0 144.0,134.0031 144.0031,134.0 145.0,133.0031 145.0031,133.0 146.0,132.0031 146.0031,132.0 147.0,131.0031 147.0031,131.0 148.0,130.0031 148.0031,130.0 149.0,129.0031 149.0031,129.0 150.0,128.0031 150.0031,128.0 151.0,127.0031 151.0031,127.0 152.0,126.0031 152.0031,126.0 153.0,125.0031 153.0031,125.0 154.0,124.0031 154.0031,124.0 155.0,123.0031 155.0031,123.0 156.0,122.0031 156.0031,122.0 157.0,121.0031 157.0031,121.0 158.0,120.0031 158.0031,120.0 159.0,119.0031 159.0031,119.0 160.0,118.0031 160.0031,118.0 161.0,117.0031 161.0031,117.0 162.0,116.0031 162.0031,116.0 163.0,115.0031 163.0031,115.0 164.0,114.0031 164.0031,114.0 165.0,113.0031 165.0031,113.0 166.0,112.0031 166.0031,112.0 167.0,111.0031 167.0031,111.0 168.0,110.0031 168.0031,110.0 169.0,109.0031 169.0031,109.0 170.0,108.0031 170.0031,108.0 171.0,107.0031 171.0031,107.0 172.0,106.0031 172.0031,106.0 173.0,105.0031 173.0031,105.0 174.0,104.0031 174.0031,104.0 175.0,103.0031 175.0031,103.0 176.0,102.0031 176.0031,102.0 177.0,101.0031 177.0031,101.0 178.0,100.0031 178.0031,100.0 179.0,99.0031 179.0031,99.0 180.0,98.0031 180.0031,98.0 180.0031,97.0 181.0,96.0031 181.0031,96.0 182.0,95.0031 182.0031,95.0 183.0,94.0031 183.0031,94.0 184.0,93.0031 184.0031,93.0 185.0,92.0031 185.0031,92.0 186.0,91.0031 186.0031,91.0 187.0,90.0031 187.0031,90.0 188.0,89.0031 188.0031,89.0 189.0,88.0031 189.0031,88.0 190.0,87.0031 190.0031,87.0 191.0,86.0031 191.0031,86.0 192.0,85.0031 192.0031,85.0 193.0,84.0031 193.0031,84.0 194.0,83.0031 194.0031,83.0 195.0,82.0031 195.0031,82.0 196.0,81.0031 196.0031,81.0 197.0,80.0031 197.0031,80.0 198.0,79.0031 198.0031,79.0 199.0,78.0031 199.0031,78.0 200.0,77.0031 200.0031,77.0 201.0,76.0031 201.0031,76.0 202.0,75.0031 202.0031,75.0 203.0,74.0031 203.0031,74.0 204.0,73.0031 204.0031,73.0 205.0,72.0031 205.0031,72.0 206.0,71.0031 206.0031,71.0 207.0,70.0031 207.0031,70.0 208.0,69.0031 209.0,69.0031 210.0,69.0031 211.0,69.0031 212.0,69.0031 212.9969,70.0 213.0,70.0031 213.9969,71.0 214.0,71.0031 214.9969,72.0 214.9969,73.0 214.9969,74.0 214.9969,75.0 214.9969,76.0 215.0,76.0031 215.9969,77.0 215.9969,78.0 215.9969,79.0 215.9969,80.0 215.9969,81.0 215.9969,82.0 215.9969,83.0 215.9969,84.0 215.9969,85.0 215.9969,86.0 215.9969,87.0 215.9969,88.0 215.9969,89.0 215.9969,90.0 215.9969,91.0 215.9969,92.0 215.9969,93.0 215.9969,94.0 215.9969,95.0 215.9969,96.0 215.9969,97.0 215.9969,98.0 215.9969,99.0 215.9969,100.0 215.9969,101.0 215.9969,102.0 215.9969,103.0 215.9969,104.0 215.9969,105.0 215.9969,106.0 215.9969,107.0 215.9969,108.0 215.9969,109.0 215.9969,110.0 215.9969,111.0 215.9969,112.0 215.9969,113.0 215.9969,114.0 215.9969,115.0 215.9969,116.0 215.9969,117.0 215.9969,118.0 215.9969,119.0 215.9969,120.0 215.9969,121.0 215.9969,122.0 215.9969,123.0 215.9969,124.0 215.9969,125.0 215.9969,126.0 215.9969,127.0 215.9969,128.0 215.9969,129.0 215.9969,130.0 215.9969,131.0 215.9969,132.0 215.9969,133.0 215.9969,134.0 215.9969,135.0 215.9969,136.0 215.0,136.9969 214.9969,137.0 214.9969,138.0 214.9969,139.0 214.9969,140.0 214.9969,141.0 214.0,141.9969 213.9969,142.0 213.9969,143.0 213.0,143.9969 212.9969,144.0 212.9969,145.0 212.0,145.9969 211.9969,146.0 211.0,146.9969 210.9969,147.0 210.0,147.9969 209.9969,148.0 209.0,148.9969 208.9969,149.0 208.0,149.9969 207.9969,150.0 207.0,150.9969 206.9969,151.0 206.0,151.9969 205.9969,152.0 205.0,152.9969 204.9969,153.0 204.0,153.9969 203.9969,154.0 203.0,154.9969 202.9969,155.0 202.0,155.9969 201.9969,156.0 201.0,156.9969 200.9969,157.0 200.0,157.9969 199.9969,158.0 199.0,158.9969 198.9969,159.0 198.0,159.9969 197.9969,160.0 197.0,160.9969 196.9969,161.0 196.0,161.9969 195.9969,162.0 195.0,162.9969 194.9969,163.0 194.0,163.9969 193.9969,164.0 193.0,164.9969 192.9969,165.0 192.0,165.9969 191.9969,166.0 191.0,166.9969 190.9969,167.0 190.0,167.9969 189.9969,168.0 189.0,168.9969 188.9969,169.0 188.0,169.9969 187.9969,170.0 187.0,170.9969 186.9969,171.0 186.0,171.9969 185.9969,172.0 185.0,172.9969 184.9969,173.0 184.0,173.9969 183.9969,174.0 183.0,174.9969 182.9969,175.0 182.0,175.9969 181.9969,176.0 181.0,176.9969 180.9969,177.0 180.0,177.9969 179.9969,178.0 179.0,178.9969 178.9969,179.0 178.0,179.9969 177.9969,180.0 177.0,180.9969 176.9969,181.0 176.0,181.9969 175.9969,182.0 175.0,182.9969 174.9969,183.0 174.0,183.9969 173.9969,184.0 173.0,184.9969 172.9969,185.0 172.0,185.9969 171.9969,186.0 171.0,186.9969 170.9969,187.0 170.0,187.9969 169.9969,188.0 169.0,188.9969 168.9969,189.0 168.0,189.9969 167.9969,190.0 167.0,190.9969 166.9969,191.0 166.0,191.9969 165.9969,192.0 165.0,192.9969 164.9969,193.0 164.0,193.9969 163.9969,194.0 163.0,194.9969 162.9969,195.0 162.0,195.9969 161.9969,196.0 161.0,196.9969 160.9969,197.0 160.0,197.9969 159.9969,198.0 159.0,198.9969 158.9969,199.0 158.0,199.9969 157.9969,200.0 157.0,200.9969 156.9969,201.0 156.0,201.9969 155.9969,202.0 155.0,202.9969 154.9969,203.0 154.0,203.9969 153.9969,204.0 153.0,204.9969 152.9969,205.0 152.0,205.9969 151.9969,206.0 151.0,206.9969 150.9969,207.0 150.0,207.9969 149.9969,208.0 149.0,208.9969 148.9969,209.0 148.0,209.9969 147.9969,210.0 147.0,210.9969 146.9969,211.0 146.0,211.9969 145.9969,212.0 145.0,212.9969 144.9969,213.0 144.0,213.9969 143.9969,214.0 143.0,214.9969 142.9969,215.0 142.0,215.9969 141.9969,216.0 141.0,216.9969 140.9969,217.0 140.0,217.9969 139.9969,218.0 139.0,218.9969 138.9969,219.0 138.0,219.9969 137.9969,220.0 137.0,220.9969 136.9969,221.0 136.0,221.9969 135.9969,222.0 135.0,222.9969 134.0,222.9969 133.9969,223.0 133.0,223.9969 132.0,223.9969 131.0,223.9969 130.9969,224.0 130.0,224.9969" /><polygon fill="white" points="252.0,152.9969 251.0031,152.0 251.0031,151.0 251.0031,150.0 251.0031,149.0 251.0031,148.0 251.0031,147.0 251.0031,146.0 251.0031,145.0 251.0031,144.0 251.0031,143.0 251.0031,142.0 251.0031,141.0 251.0031,140.0 251.0031,139.0 252.0,138.0031" /><polygon fill="white" points="119.0,315.9969 118.0,315.9969 117.0,315.9969 116.0,315.9969 115.0,315.9969 114.0,315.9969 113.0,315.9969 112.0031,315.0 112.0,314.9969 111.0031,314.0 111.0,313.9969 110.0031,313.0 110.0,312.9969 109.0031,312.0 109.0031,311.0 109.0,310.9969 108.0031,310.0 108.0031,309.0 108.0031,308.0 108.0031,307.0 108.0031,306.0 108.0031,305.0 108.0031,304.0 108.0031,303.0 108.0031,302.0 108.0031,301.0 108.0031,300.0 108.0031,299.0 108.0031,298.0 108.0031,297.0 108.0031,296.0 108.0031,295.0 108.0031,294.0 108.0031,293.0 108.0031,292.0 108.0031,291.0 108.0031,290.0 108.0031,289.0 108.0031,288.0 108.0031,287.0 108.0031,286.0 108.0031,285.0 108.0031,284.0 108.0031,283.0 108.0031,282.0 108.0031,281.0 108.0031,280.0 108.0031,279.0 108.0031,278.0 108.0031,277.0 108.0031,276.0 109.0,275.0031 109.0031,275.0 109.0031,274.0 110.0,273.0031 110.0031,273.0 111.0,272.0031 111.0031,272.0 112.0,271.0031 112.0031,271.0 112.0031,270.0 113.0,269.0031 113.0031,269.0 114.0,268.0031 114.0031,268.0 115.0,267.0031 115.0031,267.0 116.0,266.0031 116.0031,266.0 117.0,265.0031 117.0031,265.0 118.0,264.0031 118.0031,264.0 119.0,263.0031 120.0,263.0031 120.0031,263.0 121.0,262.0031 121.0031,262.0 122.0,261.0031 122.0031,261.0 123.0,260.0031 123.0031,260.0 124.0,259.0031 124.0031,259.0 125.0,258.0031 125.0031,258.0 126.0,257.0031 126.0031,257.0 127.0,256.0031 127.0031,256.0 128.0,255.0031 128.0031,255.0 129.0,254.0031 129.0031,254.0 130.0,253.0031 130.0031,253.0 131.0,252.0031 131.0031,252.0 132.0,251.0031 132.0031,251.0 133.0,250.0031 133.0031,250.0 134.0,249.0031 134.0031,249.0 135.0,248.0031 135.0031,248.0 136.0,247.0031 136.0031,247.0 137.0,246.0031 137.0031,246.0 138.0,245.0031 138.0031,245.0 139.0,244.0031 139.0031,244.0 140.0,243.0031 140.0031,243.0 141.0,242.0031 141.0031,242.0 142.0,241.0031 142.0031,241.0 143.0,240.0031 143.0031,240.0 144.0,239.0031 144.0031,239.0 145.0,238.0031 145.0031,238.0 146.0,237.0031 146.0031,237.0 147.0,236.0031 147.0031,236.0 148.0,235.0031 148.0031,235.0 149.0,234.0031 149.0031,234.0 150.0,233.0031 150.0031,233.0 151.0,232.0031 151.0031,232.0 152.0,231.0031 152.0031,231.0 153.0,230.0031 154.0,230.0031 154.0031,230.0 155.0,229.0031 155.0031,229.0 156.0,228.0031 156.0031,228.0 157.0,227.0031 158.0,227.0031 158.0031,227.0 159.0,226.0031 160.0,226.0031 160.0031,226.0 161.0,225.0031 162.0,225.0031 163.0,225.0031 164.0,225.0031 165.0,225.0031 166.0,225.0031 167.0,225.0031 168.0,225.0031 169.0,225.0031 170.0,225.0031 171.0,225.0031 172.0,225.0031 173.0,225.0031 174.0,225.0031 175.0,225.0031 176.0,225.0031 177.0,225.0031 178.0,225.0031 179.0,225.0031 180.0,225.0031 181.0,225.0031 182.0,225.0031 183.0,225.0031 184.0,225.0031 185.0,225.0031 186.0,225.0031 187.0,225.0031 188.0,225.0031 189.0,225.0031 190.0,225.0031 191.0,225.0031 192.0,225.0031 193.0,225.0031 194.0,225.0031 195.0,225.0031 196.0,225.0031 197.0,225.0031 198.0,225.0031 199.0,225.0031 200.0,225.0031 201.0,225.0031 202.0,225.0031 202.9969,226.0 203.0,226.0031 203.9969,227.0 204.0,227.0031 204.9969,228.0 204.9969,229.0 204.9969,230.0 204.9969,231.0 204.0,231.9969 203.9969,232.0 203.0,232.9969 202.9969,233.0 202.0,233.9969 201.9969,234.0 201.0,234.9969 200.9969,235.0 200.0,235.9969 199.9969,236.0 199.0,236.9969 198.9969,237.0 198.0,237.9969 197.9969,238.0 197.0,238.9969 196.9969,239.0 196.0,239.9969 195.9969,240.0 195.0,240.9969 194.9969,241.0 194.0,241.9969 193.9969,242.0 193.0,242.9969 192.9969,243.0 192.0,243.9969 191.9969,244.0 191.0,244.9969 190.9969,245.0 190.0,245.9969 189.9969,246.0 189.0,246.9969 188.9969,247.0 188.0,247.9969 187.9969,248.0 187.0,248.9969 186.9969,249.0 186.0,249.9969 185.9969,250.0 185.0,250.9969 184.9969,251.0 184.0,251.9969 183.9969,252.0 183.0,252.9969 182.9969,253.0 182.0,253.9969 181.9969,254.0 181.0,254.9969 180.9969,255.0 180.0,255.9969 179.9969,256.0 179.0,256.9969 178.9969,257.0 178.0,257.9969 177.9969,258.0 177.0,258.9969 176.9969,259.0 176.0,259.9969 175.9969,260.0 175.0,260.9969 174.9969,261.0 174.0,261.9969 173.9969,262.0 173.0,262.9969 172.9969,263.0 172.0,263.9969 171.9969,264.0 171.0,264.9969 170.9969,265.0 170.0,265.9969 169.9969,266.0 169.0,266.9969 168.9969,267.0 168.0,267.9969 167.9969,268.0 167.0,268.9969 166.9969,269.0 166.0,269.9969 165.9969,270.0 165.0,270.9969 164.9969,271.0 164.0,271.9969 163.9969,272.0 163.0,272.9969 162.9969,273.0 162.0,273.9969 161.9969,274.0 161.0,274.9969 160.9969,275.0 160.0,275.9969 159.9969,276.0 159.0,276.9969 158.9969,277.0 158.0,277.9969 157.9969,278.0 157.0,278.9969 156.9969,279.0 156.0,279.9969 155.9969,280.0 155.0,280.9969 154.9969,281.0 154.0,281.9969 153.9969,282.0 153.0,282.9969 152.9969,283.0 152.0,283.9969 151.9969,284.0 151.0,284.9969 150.9969,285.0 150.0,285.9969 149.9969,286.0 149.0,286.9969 148.9969,287.0 148.0,287.9969 147.9969,288.0 147.0,288.9969 146.9969,289.0 146.0,289.9969 145.9969,290.0 145.0,290.9969 144.9969,291.0 144.0,291.9969 143.9969,292.0 143.0,292.9969 142.9969,293.0 142.0,293.9969 141.9969,294.0 141.0,294.9969 140.9969,295.0 140.0,295.9969 139.9969,296.0 139.0,296.9969 138.9969,297.0 138.0,297.9969 137.9969,298.0 137.0,298.9969 136.9969,299.0 136.0,299.9969 135.9969,300.0 135.0,300.9969 134.9969,301.0 134.0,301.9969 133.9969,302.0 133.0,302.9969 132.9969,303.0 132.0,303.9969 131.9969,304.0 131.0,304.9969 130.9969,305.0 130.0,305.9969 129.9969,306.0 129.0,306.9969 128.9969,307.0 128.0,307.9969 127.9969,308.0 127.0,308.9969 126.9969,309.0 126.0,309.9969 125.9969,310.0 125.0,310.9969 124.9969,311.0 124.0,311.9969 123.9969,312.0 123.0,312.9969 122.9969,313.0 122.0,313.9969 121.0,313.9969 120.9969,314.0 120.0,314.9969 119.9969,315.0 119.0,315.9969" /></svg>